<svg xmlns="http://www.w3.org/2000/svg" viewBox="0 0 400 400">
  <defs>
    <linearGradient id="bgGrad" x1="0%" y1="0%" x2="100%" y2="100%">
      <stop offset="0%" stop-color="#E2E8F0" />
      <stop offset="100%" stop-color="#94A3B8" />
    </linearGradient>
    <linearGradient id="recordGrad" x1="0%" y1="0%" x2="100%" y2="100%">
      <stop offset="0%" stop-color="#334155" />
      <stop offset="100%" stop-color="#0F172A" />
    </linearGradient>
    <linearGradient id="noteGrad" x1="0%" y1="0%" x2="100%" y2="100%">
      <stop offset="0%" stop-color="#F8FAFC" />
      <stop offset="100%" stop-color="#CBD5E1" />
    </linearGradient>
    <filter id="shadow" x="-10%" y="-10%" width="130%" height="130%">
      <feDropShadow dx="2" dy="6" stdDeviation="8" flood-opacity="0.2" />
    </filter>
  </defs>
  <rect width="400" height="400" fill="url(#bgGrad)" />
  <circle cx="200" cy="200" r="140" fill="url(#recordGrad)" filter="url(#shadow)" />
  <circle cx="200" cy="200" r="130" fill="none" stroke="#475569" stroke-width="2" opacity="0.5" />
  <circle cx="200" cy="200" r="115" fill="none" stroke="#475569" stroke-width="2" opacity="0.3" />
  <circle cx="200" cy="200" r="100" fill="none" stroke="#475569" stroke-width="2" opacity="0.1" />
  <circle cx="200" cy="200" r="45" fill="url(#bgGrad)" filter="url(#shadow)" />
  <circle cx="200" cy="200" r="15" fill="#1E293B" />
  
  <path d="M190 185 L190 220 A 12 12 0 1 1 180 210 L180 175 L215 165 L215 205 A 12 12 0 1 1 205 195 L205 178 Z" fill="url(#noteGrad)" />
</svg>
